<svg width="64" height="64" viewBox="0 0 64 64" fill="none" xmlns="http://www.w3.org/2000/svg">
<circle cx="32" cy="32" r="32" fill="url(#paint0_linear_4762_3476)"/>
<rect x="7.35742" y="24.8447" width="49.1263" height="32.5354" rx="0.91954" fill="#BDC3C8"/>
<rect x="7.35742" y="20.9668" width="18.961" height="7.54132" rx="0.91954" fill="#BDC3C8"/>
<rect x="9.08203" y="28.5078" width="45.6788" height="24.3477" rx="0.91954" fill="white"/>
<mask id="path-5-inside-1_4762_3476" fill="white">
<path d="M7.35742 56.4603C7.35742 56.9682 7.76911 57.3799 8.27696 57.3799L55.5642 57.3799C56.072 57.3799 56.4837 56.9682 56.4837 56.4604L56.4837 35.6755C56.4837 35.1676 56.072 34.7559 55.5642 34.7559L8.27697 34.7559C7.76912 34.7559 7.35743 35.1676 7.35743 35.6755L7.35742 56.4603Z"/>
</mask>
<path d="M7.35742 56.4603C7.35742 56.9682 7.76911 57.3799 8.27696 57.3799L55.5642 57.3799C56.072 57.3799 56.4837 56.9682 56.4837 56.4604L56.4837 35.6755C56.4837 35.1676 56.072 34.7559 55.5642 34.7559L8.27697 34.7559C7.76912 34.7559 7.35743 35.1676 7.35743 35.6755L7.35742 56.4603Z" fill="#D4DADF"/>
<path d="M7.35742 56.4603C7.35742 57.2221 7.97496 57.8397 8.73673 57.8397L55.1044 57.8397C55.8662 57.8397 56.4837 57.2221 56.4837 56.4604L56.4837 56.4604C56.4837 56.7143 56.072 56.9201 55.5642 56.9201L8.27696 56.9201C7.76911 56.9201 7.35742 56.7143 7.35742 56.4603L7.35742 56.4603ZM56.4837 34.7559L7.35743 34.7559L56.4837 34.7559ZM7.35743 34.7559L7.35742 57.3799L7.35743 34.7559ZM56.4837 57.3799L56.4837 34.7559L56.4837 57.3799Z" fill="#8E9EAE" mask="url(#path-5-inside-1_4762_3476)"/>
<rect width="18.961" height="7.54132" rx="0.91954" transform="matrix(-1 0 0 1 56.4844 30.8779)" fill="#D4DADF"/>
<path d="M29.2416 45.9885L32.3645 42.9493C32.412 42.8955 32.4694 42.8552 32.5367 42.8284C32.604 42.8015 32.6772 42.7881 32.7563 42.7881C32.8276 42.7881 32.8949 42.8015 32.9582 42.8284C33.0215 42.8552 33.0769 42.8955 33.1244 42.9493L36.283 46C36.3859 46.0998 36.4354 46.2226 36.4314 46.3684C36.4275 46.5142 36.3701 46.637 36.2592 46.7368C36.1563 46.8289 36.0297 46.8769 35.8793 46.8807C35.7289 46.8845 35.6022 46.8366 35.4993 46.7368L33.2907 44.5955L33.2907 49.6264C33.2907 49.7722 33.2392 49.895 33.1363 49.9947C33.0334 50.0945 32.9067 50.1444 32.7563 50.1444C32.5901 50.1444 32.4575 50.0945 32.3586 49.9947C32.2596 49.895 32.2101 49.7722 32.2101 49.6264L32.2101 44.5955L29.9896 46.7483C29.8788 46.8481 29.7502 46.896 29.6037 46.8922C29.4573 46.8884 29.3366 46.8366 29.2416 46.7368C29.1307 46.6293 29.0753 46.5027 29.0753 46.3569C29.0753 46.2111 29.1307 46.0883 29.2416 45.9885Z" fill="#5E6974"/>
<path d="M54.9246 10.638L58.1954 9.37226L54.9999 8.13562L53.6991 4.5L52.4309 8.04457L49 9.37226L52.5062 10.729L53.6991 14.0632L54.9246 10.638Z" fill="#BDC3C8"/>
<defs>
<linearGradient id="paint0_linear_4762_3476" x1="25.0115" y1="-108.874" x2="32" y2="89.5632" gradientUnits="userSpaceOnUse">
<stop stop-color="#ADB9BF"/>
<stop offset="1" stop-color="#F1F4F6" stop-opacity="0"/>
</linearGradient>
</defs>
</svg>
